<svg xmlns="http://www.w3.org/2000/svg" viewBox="0 0 100 100"><g fill="#fc823b"><path d="M50,50 C43,34 43,15 50,6 C57,15 57,34 50,50 Z" transform="rotate(0 50 50)"/><path d="M50,50 C43,34 43,15 50,6 C57,15 57,34 50,50 Z" transform="rotate(30 50 50)"/><path d="M50,50 C43,34 43,15 50,6 C57,15 57,34 50,50 Z" transform="rotate(60 50 50)"/><path d="M50,50 C43,34 43,15 50,6 C57,15 57,34 50,50 Z" transform="rotate(90 50 50)"/><path d="M50,50 C43,34 43,15 50,6 C57,15 57,34 50,50 Z" transform="rotate(120 50 50)"/><path d="M50,50 C43,34 43,15 50,6 C57,15 57,34 50,50 Z" transform="rotate(150 50 50)"/><path d="M50,50 C43,34 43,15 50,6 C57,15 57,34 50,50 Z" transform="rotate(180 50 50)"/><path d="M50,50 C43,34 43,15 50,6 C57,15 57,34 50,50 Z" transform="rotate(210 50 50)"/><path d="M50,50 C43,34 43,15 50,6 C57,15 57,34 50,50 Z" transform="rotate(240 50 50)"/><path d="M50,50 C43,34 43,15 50,6 C57,15 57,34 50,50 Z" transform="rotate(270 50 50)"/><path d="M50,50 C43,34 43,15 50,6 C57,15 57,34 50,50 Z" transform="rotate(300 50 50)"/><path d="M50,50 C43,34 43,15 50,6 C57,15 57,34 50,50 Z" transform="rotate(330 50 50)"/></g></svg>